<?xml version="1.0" standalone="no"?>
<!DOCTYPE svg PUBLIC "-//W3C//DTD SVG 20010904//EN"
 "http://www.w3.org/TR/2001/REC-SVG-20010904/DTD/svg10.dtd">
<svg version="1.0" xmlns="http://www.w3.org/2000/svg"
 width="2000.000000pt" height="2000.000000pt" viewBox="0 0 2000.000000 2000.000000"
 preserveAspectRatio="xMidYMid meet">

<g transform="translate(0.000000,2000.000000) scale(0.100000,-0.100000)"
fill="#000000" stroke="none">
<path d="M8473 13891 c-151 -41 -328 -148 -431 -259 -112 -122 -198 -267 -223
-378 -8 -35 -19 -59 -31 -65 -11 -6 -67 -10 -126 -9 -59 0 -175 -2 -258 -6
-123 -6 -167 -4 -245 11 -170 32 -310 21 -344 -28 -18 -26 -19 -70 -4 -100 22
-42 152 -187 254 -285 l103 -98 -15 -30 c-9 -16 -51 -66 -94 -110 -57 -59 -79
-89 -79 -107 0 -34 -6 -35 -330 -41 -422 -8 -452 -20 -480 -196 -18 -119 -40
-311 -40 -357 l0 -43 -87 -44 c-281 -141 -448 -365 -524 -703 -22 -96 -23
-117 -29 -983 -5 -879 -6 -885 -28 -950 -12 -36 -30 -78 -41 -94 l-19 -29 -21
34 c-28 45 -50 118 -61 204 -5 39 -10 454 -10 923 0 468 -1 852 -3 852 -2 0
-39 -20 -81 -44 -228 -130 -609 -266 -746 -266 -44 0 -37 -16 11 -24 80 -13
147 -62 184 -136 47 -93 48 -105 52 -685 5 -576 0 -658 -38 -761 -11 -29 -29
-64 -40 -78 l-20 -26 771 0 771 0 -22 31 c-12 17 -31 59 -43 92 -20 60 -21 82
-24 690 l-3 627 174 0 175 0 8 -37 c4 -21 8 -263 9 -538 1 -275 7 -608 13
-740 9 -198 8 -257 -4 -340 -24 -174 -39 -952 -26 -1375 7 -201 15 -485 18
-632 8 -307 4 -294 110 -391 l61 -56 20 22 c28 30 58 92 71 148 9 36 8 64 -3
130 -8 46 -20 175 -25 286 -6 112 -15 247 -20 300 -28 279 -30 368 -16 723 32
777 29 1274 -9 1689 -15 165 -13 389 6 671 12 170 5 244 -31 312 l-20 38 145
0 145 0 0 -105 0 -105 84 0 84 0 4 -472 c4 -448 5 -477 26 -553 50 -181 158
-328 286 -389 197 -93 474 -90 671 9 39 19 81 44 94 56 l25 20 -37 152 c-20
84 -42 187 -49 230 -6 42 -15 77 -19 77 -3 0 -12 -7 -19 -16 -32 -38 -99 -65
-172 -71 -64 -4 -79 -2 -118 19 -53 29 -86 85 -100 173 -5 33 -10 219 -10 413
l0 352 215 0 215 0 0 106 0 107 46 -7 c26 -3 75 -6 110 -6 l64 0 0 -662 c0
-386 -5 -692 -10 -733 -14 -97 -35 -165 -64 -208 l-25 -37 414 0 415 0 -20 33
c-11 17 -30 61 -43 97 -21 64 -22 72 -24 750 -1 401 1 677 7 665 4 -11 69
-165 144 -343 l135 -323 5 -657 c3 -361 10 -726 15 -810 8 -126 7 -157 -5
-180 -19 -37 -18 -55 6 -85 11 -14 20 -39 20 -56 0 -18 12 -143 26 -279 22
-216 30 -388 24 -567 -1 -27 3 -95 8 -150 12 -122 18 -618 7 -634 -8 -13 13
-71 25 -71 17 0 22 -61 7 -78 -8 -9 -18 -27 -21 -39 -6 -19 -16 -22 -101 -28
-52 -4 -363 0 -692 8 -329 9 -609 14 -623 11 -14 -3 -141 2 -284 10 -327 20
-571 20 -701 1 -104 -16 -268 -65 -301 -90 -19 -15 -19 -15 0 -30 11 -8 44
-22 75 -30 31 -9 92 -27 135 -41 95 -31 89 -31 541 -15 247 9 483 11 750 6
504 -10 1979 -10 2665 -1 366 6 623 4 815 -4 522 -22 839 -27 1140 -19 730 20
726 19 774 74 28 32 29 38 36 172 8 148 0 1015 -15 1583 -5 190 -9 510 -10
713 l0 367 36 0 c93 0 285 69 351 127 l33 28 -30 115 c-27 107 -50 211 -65
302 l-6 37 -47 -33 c-76 -55 -175 -72 -246 -42 l-33 14 5 183 c7 268 -17 540
-63 722 l-7 27 196 0 196 0 0 142 c0 85 5 155 12 175 10 28 8 62 -16 216 -35
225 -42 366 -39 762 3 289 2 315 -18 379 -17 57 -30 78 -75 124 l-55 54 -26
-23 c-29 -27 -73 -114 -73 -144 0 -11 7 -39 15 -62 29 -84 50 -335 47 -563 -2
-147 2 -259 12 -353 9 -77 16 -145 16 -153 0 -11 -22 -14 -110 -14 l-110 0 0
289 c0 160 -4 292 -9 295 -5 3 -27 -18 -50 -48 -119 -154 -395 -378 -603 -491
l-88 -47 0 -54 0 -54 -92 -2 c-51 -1 -149 0 -217 2 -119 2 -126 4 -205 40 -97
46 -228 85 -337 101 -123 18 -393 7 -494 -20 -90 -25 -203 -75 -269 -120 -43
-30 -49 -31 -150 -31 l-106 0 0 315 c0 351 9 428 60 523 l28 52 -158 0 -159 0
-3 173 c-3 170 -4 174 -31 215 l-27 42 807 1 c1130 0 1879 13 1963 34 70 16
400 137 400 145 0 11 -197 60 -305 76 -77 12 -170 17 -312 16 l-202 -1 -3 27
c-2 19 -16 36 -49 57 -25 16 -78 59 -119 94 -41 35 -93 76 -117 91 l-44 28 26
30 c13 16 48 39 76 51 123 53 281 167 310 223 41 80 11 135 -90 165 -74 22
-286 21 -392 -1 -42 -9 -146 -21 -230 -26 -85 -5 -166 -12 -181 -16 l-28 -6 0
89 c0 187 -59 333 -184 458 -129 129 -254 183 -444 192 -280 14 -536 -94 -780
-331 -151 -146 -287 -335 -481 -666 -57 -96 -106 -178 -110 -183 -4 -4 -22 30
-40 75 -19 46 -51 118 -73 160 -21 43 -52 112 -68 154 -47 116 -74 165 -140
248 -88 111 -256 282 -325 331 -128 91 -320 169 -541 220 -153 35 -279 41
-371 16z m400 -262 c-18 -30 -33 -23 -33 17 0 17 5 20 25 16 24 -4 25 -5 8
-33z m2271 -21 c-10 -13 -20 -25 -21 -27 -2 -2 -3 8 -3 22 0 21 5 27 22 27 21
0 21 0 2 -22z m354 6 c12 -4 22 -9 22 -13 0 -6 -83 -51 -94 -51 -2 0 1 16 7
35 11 35 21 40 65 29z m-2160 -215 c-12 -16 -23 -29 -25 -29 -2 0 -3 20 -3 45
l0 45 25 -16 24 -16 -21 -29z m1484 8 c-18 -47 -32 -53 -32 -13 0 18 39 70 46
63 2 -2 -5 -24 -14 -50z m958 -19 c0 -4 -14 -8 -31 -8 -30 0 -31 5 -5 38 8 11
12 11 23 -4 7 -10 13 -21 13 -26z m-2647 -112 c-5 -9 -13 -12 -21 -7 -11 6 -9
16 5 46 l18 38 3 -31 c2 -17 0 -38 -5 -46z m-608 14 c3 -5 1 -10 -4 -10 -6 0
-11 5 -11 10 0 6 2 10 4 10 3 0 8 -4 11 -10z m996 -53 c-10 -9 -11 -8 -5 6 3
10 9 15 12 12 3 -3 0 -11 -7 -18z m2299 -101 c0 -8 -7 -17 -16 -20 -21 -8 -93
-7 -124 1 -20 6 -11 10 45 19 95 16 95 16 95 0z m-540 -25 c41 -30 34 -86 -20
-155 -92 -120 -426 -356 -503 -356 -14 0 -37 -10 -53 -22 -26 -21 -244 -101
-253 -93 -2 2 13 30 33 63 45 74 302 333 425 427 93 72 202 138 256 154 39 13
84 6 115 -18z m-2359 3 c78 -23 165 -72 178 -100 6 -13 23 -30 38 -37 16 -6
36 -21 46 -32 29 -32 102 -145 132 -205 23 -45 135 -307 135 -315 0 -9 -108
-12 -171 -4 -130 16 -460 127 -544 183 -202 134 -254 319 -123 443 62 59 116
83 189 83 36 0 90 -7 120 -16z m1776 -56 c-3 -8 -6 -5 -6 6 -1 11 2 17 5 13 3
-3 4 -12 1 -19z m-1195 -83 c-14 -40 -18 -43 -31 -30 -13 13 -12 18 14 45 16
16 30 30 31 30 2 0 -4 -20 -14 -45z m183 16 c3 -5 1 -12 -5 -16 -5 -3 -10 1
-10 9 0 18 6 21 15 7z m2828 -12 c-8 -8 -16 -8 -30 0 -16 9 -14 10 12 11 21 0
26 -3 18 -11z m-4705 -60 c-2 -5 -28 -24 -58 -42 l-55 -31 35 42 c23 27 43 42
58 42 13 0 22 -5 20 -11z m3952 5 c0 -10 -34 -64 -40 -64 -3 0 -23 16 -45 35
l-40 34 63 1 c34 0 62 -3 62 -6z m-4477 -55 c-6 -6 -17 -8 -24 -3 -9 5 -8 9 7
14 23 9 31 3 17 -11z m2346 -157 c-11 -33 -24 -41 -32 -19 -4 11 32 61 40 54
2 -2 -2 -18 -8 -35z m1961 -20 c0 -23 -24 -31 -51 -16 -39 19 -36 24 11 24 22
0 40 -4 40 -8z m263 -119 c4 -20 5 -39 2 -41 -7 -7 -36 58 -30 68 12 19 22 9
28 -27z m-2110 -156 c-6 -65 -7 -67 -33 -67 -27 0 -28 1 -19 38 5 20 9 40 9
43 0 10 42 61 46 56 2 -2 1 -33 -3 -70z m-1574 -23 c2 -2 -28 -4 -67 -4 l-70
0 21 38 21 39 45 -35 c25 -19 48 -36 50 -38z m1754 22 c43 -55 37 -66 -33 -66
l-60 0 28 50 c15 27 29 50 32 50 3 0 17 -16 33 -34z m-2659 -1 c4 -11 -2 -15
-21 -15 -21 0 -24 2 -13 15 7 8 16 15 20 15 4 0 10 -7 14 -15z m3646 -56 c-14
-4 -43 -7 -64 -8 -34 -1 -37 1 -23 12 11 7 36 10 65 8 39 -4 43 -5 22 -12z
m-3740 -184 c179 -8 712 -19 1184 -25 472 -5 860 -11 862 -13 2 -1 -6 -32 -17
-67 -13 -43 -20 -93 -20 -150 -1 -47 -4 -89 -8 -95 -21 -26 -20 -64 3 -106 22
-43 23 -54 29 -359 l6 -315 -144 330 -144 330 -370 3 -371 2 25 -37 c59 -86
75 -203 75 -559 l0 -282 -22 -6 c-13 -3 -62 -6 -110 -6 l-88 0 0 70 0 70 -215
0 -215 0 0 295 c0 162 -3 295 -7 295 -5 0 -18 -15 -31 -34 -35 -51 -205 -219
-297 -293 -104 -84 -251 -182 -342 -228 l-73 -37 0 -69 0 -69 -165 0 -165 0 0
70 0 70 -125 0 -125 0 6 158 c5 127 9 159 22 170 31 24 97 37 187 37 78 0 98
-4 150 -28 34 -16 78 -48 102 -73 40 -44 42 -45 48 -22 3 12 32 136 65 275 33
138 60 258 60 266 0 19 -72 53 -169 80 -64 18 -105 21 -254 21 l-177 1 0 45
c1 71 26 270 36 280 23 22 366 25 794 5z m2233 -52 c-7 -2 -19 -2 -25 0 -7 3
-2 5 12 5 14 0 19 -2 13 -5z m227 -14 c-70 -21 -87 -23 -76 -11 14 14 71 30
106 30 30 0 25 -2 -30 -19z m-3524 -1147 c-12 -11 -17 7 -9 34 l8 29 3 -28 c2
-16 1 -31 -2 -35z m6574 -442 l0 -100 84 0 85 0 3 -487 c4 -474 5 -490 27
-563 62 -205 195 -349 367 -400 l42 -13 6 -216 c3 -119 11 -310 16 -426 24
-509 32 -963 26 -1440 -3 -275 -9 -521 -12 -547 l-6 -46 -116 -6 c-65 -3 -666
-8 -1337 -12 -996 -5 -1218 -3 -1207 7 15 16 16 91 2 139 -23 81 -49 454 -55
800 -6 394 -17 682 -41 1085 -15 255 -14 506 2 638 l7 47 162 0 163 0 -28 53
c-58 106 -60 141 -60 866 0 363 4 662 8 665 4 2 35 8 68 11 l61 7 57 -91 c32
-50 79 -129 105 -176 l48 -85 31 44 c84 116 246 186 433 187 198 0 319 -74
399 -243 35 -73 39 -104 13 -93 -74 30 -137 39 -273 40 -172 0 -261 -20 -405
-90 -262 -127 -435 -373 -434 -615 0 -205 86 -381 223 -460 149 -85 381 -81
511 8 50 35 66 57 255 351 l155 241 7 -192 c8 -251 34 -341 119 -424 53 -52
110 -57 199 -16 114 52 490 262 490 273 0 5 -14 9 -30 9 -70 0 -147 61 -171
137 -8 26 -14 176 -19 463 -7 392 -9 431 -29 505 -23 85 -67 187 -101 236
l-21 29 85 0 86 0 0 -100z m-632 -449 c21 -11 22 -17 22 -182 0 -197 0 -198
-89 -282 -100 -95 -212 -133 -320 -107 -60 14 -116 69 -127 125 -31 166 119
385 305 447 62 20 170 20 209 -1z m-1698 -1339 c0 -13 -17 -21 -81 -35 -44
-10 -82 -17 -85 -15 -4 5 137 67 154 68 6 0 12 -8 12 -18z m0 -212 c0 -5 -8
-10 -17 -10 -15 0 -16 2 -3 10 19 12 20 12 20 0z m-845 -175 c-59 -28 -65 -29
-65 -11 0 7 18 18 43 23 68 17 75 13 22 -12z m865 -211 c0 -8 -4 -12 -10 -9
-5 3 -10 10 -10 16 0 5 5 9 10 9 6 0 10 -7 10 -16z m-60 -233 c-66 -34 -237
-94 -252 -89 -12 4 160 83 227 104 70 22 83 14 25 -15z m103 -912 c-20 -19
-293 -107 -293 -94 0 2 42 25 93 51 50 25 117 63 147 83 l55 36 3 -34 c2 -18
0 -37 -5 -42z m-835 -22 c-39 -32 -50 -68 -32 -102 8 -15 13 -29 12 -30 -2 -1
-13 -7 -24 -13 -20 -10 -22 -8 -28 26 -9 57 -7 104 4 97 6 -3 10 1 10 9 0 9
14 19 33 25 50 14 54 12 25 -12z m817 -171 c-16 -7 -43 -16 -60 -19 -26 -5
-25 -4 10 13 22 11 49 19 60 19 15 -1 13 -4 -10 -13z m-805 -181 c-53 -28 -60
-30 -60 -11 0 7 18 18 43 23 64 16 66 14 17 -12z"/>
<path d="M4901 11870 c-110 -40 -196 -134 -232 -253 -52 -169 33 -358 197
-442 55 -28 67 -30 164 -30 96 0 110 2 163 29 175 89 257 279 197 456 -39 115
-127 206 -239 245 -61 21 -183 19 -250 -5z"/>
<path d="M16325 11828 c-51 -34 -305 -154 -408 -192 -125 -47 -265 -84 -344
-92 -35 -4 -63 -10 -63 -13 0 -3 23 -12 52 -19 73 -17 123 -53 158 -115 62
-109 61 -88 58 -1212 l-3 -1020 -23 -65 c-13 -35 -33 -77 -43 -92 l-20 -28
384 0 385 0 -28 53 c-56 103 -60 155 -60 718 l0 512 31 63 c34 68 100 137 152
159 126 52 263 10 324 -100 l28 -50 3 -559 c3 -535 2 -563 -18 -640 -11 -44
-31 -97 -45 -118 l-25 -38 384 0 385 0 -30 58 c-56 108 -59 155 -59 797 0 348
-4 615 -10 662 -23 166 -74 278 -170 366 -110 102 -233 142 -420 135 -101 -4
-123 -8 -178 -34 l-64 -29 -144 -280 -144 -280 0 738 c0 405 -3 737 -7 736 -5
0 -21 -10 -38 -21z"/>
<path d="M3394 11734 c-249 -42 -502 -168 -680 -341 -341 -330 -486 -826 -393
-1345 60 -334 247 -655 490 -838 156 -117 289 -181 479 -232 106 -28 132 -31
321 -36 129 -3 245 0 309 8 260 30 482 120 628 253 l42 40 0 553 0 554 -320 0
-320 0 -2 -432 -3 -432 -70 -18 c-87 -22 -255 -24 -343 -3 -330 78 -558 382
-593 792 -17 204 10 360 93 532 44 91 62 116 137 192 76 75 101 93 192 137
148 71 214 86 384 86 153 0 219 -11 336 -55 127 -49 240 -131 321 -233 37 -47
39 -48 45 -25 9 32 135 402 159 461 l18 48 -34 36 c-145 150 -427 273 -699
304 -121 14 -400 11 -497 -6z"/>
<path d="M14778 10984 c-104 -19 -228 -65 -321 -120 -300 -175 -474 -540 -454
-949 11 -211 47 -351 134 -518 39 -75 66 -110 148 -192 132 -132 224 -185 413
-237 66 -19 103 -22 267 -22 179 0 195 1 280 27 175 55 319 149 430 284 30 37
55 71 55 75 0 4 -34 40 -75 79 -82 78 -196 210 -240 277 l-28 43 -69 -75 c-77
-84 -152 -128 -251 -147 -73 -15 -180 1 -253 37 -263 127 -287 619 -40 830
120 102 302 131 441 69 62 -27 157 -111 175 -155 15 -36 23 -37 37 -7 16 33
151 211 232 304 39 46 71 86 71 91 0 13 -119 124 -170 159 -104 70 -252 131
-374 152 -82 15 -315 12 -408 -5z"/>
<path d="M15370 8391 c0 -131 1 -142 23 -166 45 -53 179 -52 224 0 22 26 23
33 21 163 -3 133 -4 137 -25 140 -23 3 -23 3 -23 -132 0 -128 -1 -136 -22
-150 -30 -21 -112 -21 -132 0 -13 12 -16 41 -16 150 l0 134 -25 0 -25 0 0
-139z"/>
<path d="M15700 8360 l0 -170 25 0 24 0 3 125 3 125 75 -125 c67 -110 78 -124
103 -125 l27 0 0 170 c0 162 -1 170 -20 170 -18 0 -20 -8 -22 -132 l-3 -133
-54 90 c-93 154 -109 175 -136 175 l-25 0 0 -170z"/>
<path d="M16030 8361 l0 -171 120 0 c113 0 120 1 120 20 0 19 -7 20 -95 20
l-94 0 -3 148 c-3 144 -3 147 -25 150 l-23 3 0 -170z"/>
<path d="M16310 8361 l0 -171 25 0 25 0 -2 168 c-3 165 -3 167 -25 170 l-23 3
0 -170z"/>
<path d="M16420 8361 l0 -171 25 0 25 0 1 123 1 122 41 -122 c35 -104 45 -123
62 -123 18 0 26 18 59 118 21 64 42 121 47 127 5 5 9 -44 9 -118 0 -120 1
-127 20 -127 19 0 20 7 20 171 l0 170 -32 -3 c-31 -3 -32 -5 -74 -132 -24 -71
-45 -131 -48 -133 -2 -2 -24 56 -48 129 -44 131 -45 133 -76 136 l-32 3 0
-170z"/>
<path d="M16797 8523 c-4 -3 -7 -80 -7 -170 l0 -163 25 0 25 0 0 170 c0 158
-1 170 -18 170 -10 0 -22 -3 -25 -7z"/>
<path d="M16874 8516 c-10 -26 6 -36 57 -36 l49 0 0 -145 0 -145 25 0 25 0 0
144 0 145 53 3 c44 3 52 6 52 23 0 19 -8 20 -128 23 -105 2 -128 0 -133 -12z"/>
<path d="M17170 8360 l0 -170 120 0 c113 0 120 1 120 20 0 19 -7 20 -100 20
l-100 0 0 55 0 55 80 0 c73 0 80 2 80 20 0 18 -7 20 -80 20 l-80 0 0 50 0 49
98 3 c92 3 97 4 100 26 3 22 2 22 -117 22 l-121 0 0 -170z"/>
<path d="M17458 8524 c-5 -4 -8 -81 -8 -171 l0 -163 100 0 c158 0 170 13 170
175 0 95 -2 106 -24 132 -23 26 -29 28 -127 31 -57 2 -107 1 -111 -4z m200
-56 c8 -8 12 -47 12 -109 0 -119 -8 -129 -107 -129 l-63 0 0 125 0 125 73 0
c43 0 78 -5 85 -12z"/>
</g>
</svg>
