<?xml version="1.0" standalone="no"?>
<!DOCTYPE svg PUBLIC "-//W3C//DTD SVG 20010904//EN"
 "http://www.w3.org/TR/2001/REC-SVG-20010904/DTD/svg10.dtd">
<svg version="1.0" xmlns="http://www.w3.org/2000/svg"
 width="2000.000000pt" height="2000.000000pt" viewBox="0 0 2000.000000 2000.000000"
 preserveAspectRatio="xMidYMid meet">

<g transform="translate(0.000000,2000.000000) scale(0.100000,-0.100000)"
fill="#000000" stroke="none">
<path d="M8465 13889 c-176 -49 -360 -173 -479 -320 -73 -91 -148 -232 -169
-318 -17 -68 -29 -73 -167 -71 -58 1 -171 -1 -251 -5 -123 -7 -160 -5 -235 11
-49 10 -127 18 -174 18 -138 0 -190 -29 -190 -106 0 -31 10 -49 61 -110 79
-94 169 -189 243 -256 51 -46 57 -56 51 -80 -3 -15 -36 -56 -73 -92 -79 -76
-102 -107 -102 -137 0 -13 -1 -23 -2 -24 -2 0 -138 -5 -303 -9 -466 -14 -478
-19 -510 -232 -15 -95 -45 -371 -42 -374 1 -1 38 9 82 21 44 13 92 25 106 29
25 5 26 8 38 141 14 168 19 192 40 200 37 16 413 16 721 1 184 -9 711 -20
1215 -26 489 -6 891 -13 893 -15 2 -2 -1 -12 -6 -22 -20 -37 -43 -178 -37
-221 5 -31 2 -54 -10 -79 -18 -38 -14 -77 13 -106 13 -15 17 -65 23 -342 l7
-324 113 -258 c61 -142 122 -280 134 -308 13 -27 35 -79 50 -115 15 -36 30
-69 34 -73 9 -9 -1 -32 355 788 l273 630 207 3 206 2 0 168 c0 168 0 168 -29
213 l-29 46 1317 6 c1143 5 1328 8 1405 22 86 15 446 141 446 156 0 10 -149
49 -275 72 -86 16 -155 20 -320 21 l-211 1 -14 30 c-8 16 -30 39 -48 50 -18
11 -66 48 -105 83 -40 35 -93 77 -119 94 -27 17 -48 37 -48 43 0 19 42 52 95
75 114 49 284 169 310 221 8 15 15 44 15 64 0 48 -33 79 -106 101 -78 24 -287
24 -399 1 -44 -9 -150 -21 -235 -26 -85 -6 -165 -13 -176 -16 -21 -6 -22 -3
-26 112 -6 138 -28 216 -87 313 -120 199 -329 310 -585 310 -260 0 -504 -111
-734 -334 -162 -157 -291 -336 -497 -690 -90 -153 -100 -167 -108 -145 -6 13
-30 69 -55 124 -24 55 -60 136 -79 180 -81 187 -123 262 -187 340 -105 125
-252 271 -317 316 -123 83 -287 153 -469 199 -211 54 -329 61 -445 29z m415
-241 c0 -7 -7 -21 -14 -31 -12 -16 -14 -16 -20 -1 -11 29 -6 44 14 44 11 0 20
-6 20 -12z m2280 -21 c0 -2 -9 -12 -20 -22 -19 -18 -20 -17 -20 3 0 15 6 22
20 22 11 0 20 -2 20 -3z m348 -17 c26 0 10 -17 -37 -37 l-50 -21 10 26 c15 40
20 44 43 38 11 -3 27 -6 34 -6z m-685 -198 c-15 -40 -33 -48 -33 -15 0 16 40
67 47 60 1 -2 -5 -22 -14 -45z m-1482 25 c15 -11 15 -15 -7 -42 l-24 -30 0 43
c0 44 5 49 31 29z m2439 -49 c0 -4 -14 -8 -30 -8 l-30 0 17 26 c16 25 17 25
30 8 7 -10 13 -21 13 -26z m-2647 -97 c-6 -21 -12 -28 -21 -22 -11 6 -10 15 5
46 20 41 29 27 16 -24z m388 -54 c-10 -9 -11 -8 -5 6 3 10 9 15 12 12 3 -3 0
-11 -7 -18z m2299 -101 c0 -25 -60 -34 -131 -19 -31 7 -27 8 41 19 41 6 78 12
83 13 4 0 7 -5 7 -13z m-540 -25 c53 -38 29 -110 -69 -209 -114 -114 -368
-285 -440 -298 -20 -3 -49 -15 -64 -26 -26 -18 -257 -102 -257 -93 0 47 287
357 436 471 116 89 184 132 250 160 64 26 102 25 144 -5z m-2347 -2 c83 -28
155 -68 162 -90 4 -10 25 -31 48 -46 74 -50 169 -209 262 -438 20 -49 39 -96
42 -104 5 -11 -15 -13 -118 -9 -122 4 -128 6 -324 72 -229 78 -261 94 -350
177 -167 157 -154 322 35 433 58 34 152 36 243 5z m1764 -51 c-3 -8 -6 -5 -6
6 -1 11 2 17 5 13 3 -3 4 -12 1 -19z m-1200 -92 c-12 -34 -14 -36 -26 -22 -12
14 -11 20 9 41 30 32 33 27 17 -19z m193 20 c0 -3 -4 -8 -10 -11 -5 -3 -10 -1
-10 4 0 6 5 11 10 11 6 0 10 -2 10 -4z m2825 -6 c-3 -5 -12 -7 -20 -3 -21 7
-19 13 6 13 11 0 18 -4 14 -10z m-4711 -59 c5 -8 -76 -61 -92 -61 -3 0 9 16
28 35 34 35 54 43 64 26z m3940 -23 c-9 -18 -18 -35 -20 -37 -6 -7 -74 52 -68
60 3 5 28 9 55 9 l50 0 -17 -32z m-4459 -28 c-3 -5 -10 -10 -16 -10 -5 0 -9 5
-9 10 0 6 7 10 16 10 8 0 12 -4 9 -10z m2342 -159 c-6 -17 -15 -28 -19 -25
-12 7 -10 28 4 42 20 20 27 13 15 -17z m1948 -21 c11 -18 -23 -22 -47 -6 l-22
16 31 0 c18 0 35 -5 38 -10z m277 -119 c2 -17 0 -27 -5 -24 -11 7 -26 46 -20
56 8 14 21 -2 25 -32z m-2109 -153 c-6 -66 -6 -68 -33 -68 l-28 0 13 51 c12
43 42 95 51 87 1 -2 0 -33 -3 -70z m-1616 7 l46 -35 -67 0 c-36 0 -66 2 -66 5
0 10 30 65 36 65 3 0 26 -16 51 -35z m1789 -3 c12 -15 24 -37 28 -49 7 -22 5
-23 -48 -23 -31 0 -56 2 -56 5 0 10 44 95 49 94 4 0 15 -12 27 -27z m-2656 -7
c11 -13 8 -15 -15 -15 -23 0 -26 2 -15 15 7 8 14 15 15 15 1 0 8 -7 15 -15z
m3625 -55 c-16 -4 -41 -8 -55 -9 -20 0 -22 1 -10 9 8 5 33 9 55 9 39 -1 39 -2
10 -9z m-1488 -236 c-3 -3 -12 -4 -19 -1 -8 3 -5 6 6 6 11 1 17 -2 13 -5z
m253 -8 c-25 -7 -58 -15 -75 -19 -26 -5 -25 -4 10 13 22 11 56 19 75 19 l35
-1 -45 -12z"/>
<path d="M13630 12250 c-26 -26 -70 -117 -70 -145 0 -11 7 -42 15 -69 18 -59
49 -341 49 -441 0 -38 -1 -135 -2 -215 -1 -80 5 -201 13 -270 8 -69 15 -131
15 -137 0 -10 26 -13 95 -13 80 0 95 3 95 16 0 8 -7 69 -16 135 -11 89 -16
227 -17 542 l-2 422 -32 66 c-23 47 -45 74 -77 97 l-45 33 -21 -21z"/>
<path d="M6227 11221 c-70 -67 -117 -146 -125 -216 l-5 -45 100 0 100 0 7 46
c10 73 7 274 -4 274 -5 0 -38 -27 -73 -59z"/>
<path d="M13851 10807 c-1 -57 3 -86 9 -82 11 7 11 95 0 140 -5 21 -8 4 -9
-58z"/>
<path d="M12308 10809 c33 -22 92 -73 131 -114 l72 -74 85 -7 84 -7 0 121 0
122 -216 0 -217 0 61 -41z"/>
<path d="M8138 10823 l-78 -4 0 -93 c0 -76 3 -95 16 -100 9 -3 58 -6 110 -6
l94 0 0 105 0 105 -32 -2 c-18 -1 -68 -4 -110 -5z"/>
<path d="M6550 10620 l0 -200 -61 0 -61 0 7 -47 c7 -42 11 -379 18 -1378 1
-128 -4 -286 -11 -356 -7 -70 -15 -265 -18 -434 -2 -169 -6 -310 -8 -314 -2
-3 0 -123 5 -266 4 -143 13 -455 19 -694 13 -500 7 -471 113 -564 l65 -57 28
32 c53 63 81 167 65 239 -6 24 -15 112 -21 194 -23 320 -51 712 -54 745 -2 19
2 181 10 360 31 771 28 1315 -12 1750 -8 91 -12 199 -9 240 8 112 20 430 20
550 0 93 -3 111 -26 157 l-26 52 146 3 146 3 0 90 0 90 -167 3 -168 2 0 -200z"/>
<path d="M10810 10689 c0 -119 1 -130 18 -125 9 3 38 8 65 12 26 3 47 8 47 11
0 3 -15 25 -32 50 l-33 45 73 69 72 69 -105 0 -105 0 0 -131z"/>
<path d="M9866 9830 c-164 -393 -304 -726 -311 -740 l-13 -25 -10 25 c-6 14
-78 187 -160 384 l-150 360 -8 -50 c-8 -58 4 -1253 15 -1429 6 -93 5 -124 -6
-140 -19 -28 -16 -68 7 -93 13 -14 20 -35 20 -61 0 -22 12 -151 26 -288 22
-218 29 -371 24 -548 0 -27 4 -106 9 -175 6 -69 10 -245 9 -392 -1 -258 0
-267 21 -293 24 -32 27 -58 7 -74 -8 -7 -17 -22 -20 -35 -5 -21 -12 -23 -93
-29 -49 -3 -259 -1 -468 5 -209 5 -519 11 -690 13 -170 2 -411 9 -535 15 -124
7 -313 10 -420 7 -218 -6 -312 -22 -446 -78 l-77 -32 23 -19 c12 -10 54 -28
94 -39 39 -11 100 -30 136 -42 76 -25 73 -25 575 -8 256 9 493 10 725 5 548
-13 1782 -14 2435 -3 595 10 825 7 1540 -22 270 -11 630 -5 1170 20 177 8 206
17 241 75 18 29 19 60 22 446 2 228 -4 726 -12 1105 -9 380 -16 819 -16 976
l0 286 -102 6 c-57 3 -111 9 -122 13 -18 7 -19 -1 -12 -262 4 -148 11 -341 16
-429 29 -504 37 -1680 14 -1922 l-6 -61 -142 -6 c-77 -3 -675 -8 -1327 -12
l-1186 -6 5 51 c2 28 0 70 -6 94 -26 100 -51 478 -57 842 -6 395 -16 648 -41
1080 -15 252 -14 399 3 588 l6 67 -252 0 -252 0 24 33 c30 39 53 110 67 202 7
45 9 297 8 700 l-3 630 -299 -715z m482 -1097 c-2 -13 -24 -22 -78 -35 -104
-24 -106 -22 -20 17 86 39 103 42 98 18z m-1 -219 c-3 -3 -12 -4 -19 -1 -8 3
-5 6 6 6 11 1 17 -2 13 -5z m-846 -170 c-62 -28 -64 -28 -59 -12 3 7 24 18 49
24 67 18 69 15 10 -12z m794 -449 c-77 -36 -233 -90 -241 -83 -5 6 137 69 216
97 87 31 102 22 25 -14z m125 -870 c0 -40 4 -37 -135 -85 -144 -49 -159 -46
-55 11 52 28 113 64 135 80 22 15 43 28 48 29 4 0 7 -16 7 -35z m-848 -63
c-39 -36 -47 -64 -28 -100 14 -28 14 -30 -8 -40 -22 -10 -24 -8 -30 35 -10 74
-8 93 9 87 11 -4 13 -2 9 9 -4 11 5 18 33 25 21 5 40 10 42 11 2 1 -10 -11
-27 -27z m799 -173 c-30 -10 -56 -17 -58 -15 -5 5 77 34 97 34 8 1 -9 -8 -39
-19z m-791 -178 c-34 -19 -50 -19 -50 -1 0 9 28 16 65 18 14 1 9 -5 -15 -17z"/>
<path d="M13420 10092 c0 -425 13 -523 77 -587 16 -17 17 -16 24 1 11 28 10
411 -1 549 -10 115 -30 249 -51 328 -7 27 -15 37 -29 37 -19 0 -20 -9 -20
-328z"/>
</g>
</svg>
