<?xml version="1.0" standalone="no"?>
<!DOCTYPE svg PUBLIC "-//W3C//DTD SVG 20010904//EN"
 "http://www.w3.org/TR/2001/REC-SVG-20010904/DTD/svg10.dtd">
<svg version="1.0" xmlns="http://www.w3.org/2000/svg"
 width="2000.000000pt" height="2000.000000pt" viewBox="0 0 2000.000000 2000.000000"
 preserveAspectRatio="xMidYMid meet">

<g transform="translate(0.000000,2000.000000) scale(0.100000,-0.100000)"
fill="#000000" stroke="none">
<path d="M8499 13896 c-196 -45 -410 -190 -544 -369 -56 -73 -120 -203 -136
-275 -7 -29 -20 -57 -28 -61 -9 -5 -137 -12 -286 -16 -235 -6 -282 -4 -360 11
-99 19 -235 22 -277 5 -61 -23 -85 -80 -56 -134 21 -41 169 -206 263 -295 l94
-88 -15 -29 c-8 -17 -49 -64 -91 -106 -52 -54 -77 -87 -82 -110 l-7 -34 -289
-7 c-383 -9 -458 -25 -490 -102 -17 -40 -52 -274 -61 -407 l-7 -96 102 26 c83
21 103 30 106 46 2 11 10 86 18 168 7 81 17 150 21 154 15 15 431 15 809 -1
221 -9 768 -21 1215 -25 448 -5 815 -11 817 -13 3 -2 -3 -26 -12 -53 -8 -28
-19 -97 -24 -155 -4 -58 -11 -125 -15 -148 -5 -35 -2 -49 13 -70 18 -25 20
-51 27 -354 l6 -327 106 -243 c58 -134 116 -265 128 -293 13 -27 40 -89 61
-138 21 -48 39 -86 41 -85 1 2 142 325 313 718 l310 715 206 3 206 2 -3 173
c-3 167 -4 173 -30 213 l-26 41 1226 7 c675 4 1295 11 1377 15 162 9 213 22
465 119 103 40 104 41 75 52 -53 20 -227 59 -320 71 -49 6 -176 11 -282 10
l-192 -1 -3 27 c-2 19 -14 34 -36 48 -18 11 -72 53 -118 93 -47 40 -104 85
-127 99 -23 15 -44 28 -46 30 -11 8 50 58 99 82 151 73 284 170 315 232 32 61
7 115 -68 147 -74 32 -333 32 -449 1 -21 -5 -108 -13 -195 -18 -87 -5 -170
-14 -184 -19 l-26 -10 -5 116 c-8 197 -70 336 -203 461 -38 35 -94 74 -137 95
-378 186 -855 24 -1205 -408 -85 -105 -248 -353 -353 -536 -46 -80 -88 -151
-95 -158 -8 -9 -20 10 -49 80 -21 51 -50 113 -63 138 -14 25 -42 89 -64 143
-22 54 -50 120 -64 147 -55 109 -312 390 -426 465 -237 158 -679 275 -870 231z
m374 -267 c-20 -33 -33 -29 -33 10 0 25 3 28 25 23 24 -4 24 -5 8 -33z m2276
-16 c-13 -16 -25 -30 -26 -32 -2 -2 -3 7 -3 22 0 19 6 27 23 30 12 2 24 5 26
6 3 0 -6 -11 -20 -26z m361 -2 c24 -7 22 -9 -28 -35 -30 -15 -56 -26 -58 -24
-2 3 2 19 8 36 13 33 27 37 78 23z m-2171 -212 c-11 -16 -22 -29 -25 -29 -2 0
-4 20 -4 45 l0 45 25 -16 25 -16 -21 -29z m1483 7 c-18 -46 -32 -52 -32 -12 0
18 39 70 47 62 2 -2 -5 -24 -15 -50z m958 -18 c0 -4 -13 -8 -30 -8 -34 0 -37
6 -13 32 16 18 18 18 30 2 7 -10 13 -21 13 -26z m-2640 -70 c0 -44 -15 -67
-31 -51 -10 10 -8 20 7 48 10 19 20 35 21 35 2 0 3 -15 3 -32z m-615 -28 c3
-5 1 -10 -4 -10 -6 0 -11 5 -11 10 0 6 2 10 4 10 3 0 8 -4 11 -10z m996 -53
c-10 -9 -11 -8 -5 6 3 10 9 15 12 12 3 -3 0 -11 -7 -18z m2297 -104 c-2 -14
-15 -19 -53 -21 -27 -2 -66 0 -85 4 -33 7 -31 8 35 20 101 17 107 17 103 -3z
m-538 -22 c44 -32 39 -78 -17 -152 -94 -123 -425 -359 -505 -359 -12 0 -31 -9
-42 -19 -19 -17 -176 -77 -248 -95 l-27 -6 37 62 c44 75 286 321 412 419 212
165 316 205 390 150z m-2346 -1 c84 -29 152 -69 165 -96 6 -14 24 -31 41 -37
61 -26 155 -178 251 -405 33 -79 57 -147 54 -151 -13 -13 -192 -3 -260 14 -60
15 -169 52 -361 121 -56 20 -125 67 -184 124 -151 147 -133 319 44 420 43 25
62 30 122 30 45 0 92 -7 128 -20z m1758 -62 c-6 -6 -7 0 -4 19 5 21 7 23 10 9
2 -10 0 -22 -6 -28z m-1190 -73 c-17 -48 -26 -55 -36 -28 -4 10 3 26 21 45 15
15 28 28 29 28 2 0 -4 -20 -14 -45z m177 -1 c-15 -18 -22 -13 -13 10 3 9 10
13 16 10 5 -3 4 -12 -3 -20z m2834 5 c-8 -8 -16 -8 -30 0 -16 9 -14 10 12 11
21 0 26 -3 18 -11z m-4705 -60 c-2 -5 -28 -24 -58 -42 l-55 -31 35 42 c23 27
43 42 58 42 13 0 22 -5 20 -11z m3952 5 c0 -10 -34 -64 -40 -64 -4 0 -24 16
-46 35 l-39 34 63 1 c34 0 62 -3 62 -6z m-4477 -55 c-6 -6 -17 -8 -24 -3 -9 5
-8 9 7 14 23 9 31 3 17 -11z m2346 -157 c-11 -33 -24 -41 -32 -19 -4 11 32 61
40 54 2 -2 -2 -18 -8 -35z m1961 -20 c0 -23 -24 -31 -51 -16 -39 19 -36 24 11
24 22 0 40 -4 40 -8z m265 -118 c3 -20 4 -38 1 -41 -8 -8 -37 57 -31 67 12 19
23 9 30 -26z m-2109 -149 c-10 -73 -11 -75 -38 -75 -26 0 -27 2 -21 33 9 48
45 117 62 117 3 0 2 -34 -3 -75z m-1577 -31 c2 -2 -28 -4 -68 -4 l-72 0 23 39
22 38 45 -35 c25 -19 48 -36 50 -38z m1754 22 c43 -55 37 -66 -34 -66 l-60 0
28 50 c15 27 30 50 33 50 3 0 17 -16 33 -34z m-2659 -1 c4 -11 -2 -15 -21 -15
-21 0 -24 2 -13 15 7 8 16 15 20 15 4 0 10 -7 14 -15z m546 -5 c0 -5 -5 -10
-11 -10 -5 0 -7 5 -4 10 3 6 8 10 11 10 2 0 4 -4 4 -10z m3093 -40 c24 0 28
-3 17 -10 -8 -5 -37 -10 -65 -10 -46 1 -49 2 -30 16 11 8 26 12 33 9 8 -3 28
-5 45 -5z m-1500 -247 c-7 -2 -19 -2 -25 0 -7 3 -2 5 12 5 14 0 19 -2 13 -5z
m232 -14 c-38 -10 -74 -17 -80 -15 -21 7 62 34 105 34 45 0 44 0 -25 -19z"/>
<path d="M13612 12221 c-15 -21 -34 -57 -42 -80 -11 -36 -11 -47 4 -93 32 -98
51 -316 48 -543 -2 -144 2 -263 14 -377 l17 -168 93 0 c52 0 94 3 94 8 0 4 -8
59 -17 122 -13 91 -16 204 -17 540 -1 388 -3 430 -20 479 -20 58 -100 151
-129 151 -9 0 -29 -17 -45 -39z"/>
<path d="M6239 11238 c-29 -24 -69 -72 -90 -107 -32 -54 -39 -74 -39 -118 l0
-53 93 0 94 0 6 98 c10 139 9 222 -3 222 -5 0 -33 -19 -61 -42z"/>
<path d="M13852 10800 c0 -67 2 -80 10 -63 8 16 8 42 1 85 l-10 63 -1 -85z"/>
<path d="M12317 10801 c38 -27 96 -78 130 -115 l62 -66 86 0 85 0 0 114 0 114
-215 0 -216 0 68 -47z"/>
<path d="M8165 10821 l-110 -6 -3 -91 -3 -91 77 -7 c42 -3 94 -6 116 -6 l38 0
0 105 c0 58 -1 104 -2 103 -2 -1 -52 -4 -113 -7z"/>
<path d="M6548 10623 l-3 -198 -59 -3 -58 -3 8 -37 c5 -20 9 -253 9 -517 1
-264 6 -595 13 -735 11 -221 10 -270 -3 -370 -26 -192 -40 -931 -27 -1345 7
-192 15 -476 18 -630 4 -187 11 -290 19 -310 7 -16 43 -60 81 -97 l69 -67 21
20 c27 25 62 103 73 162 5 28 3 71 -5 118 -7 41 -18 163 -23 272 -6 109 -17
268 -25 355 -26 280 -28 334 -17 562 35 737 34 1362 -4 1796 -13 146 -13 214
-3 460 17 413 16 449 -15 517 l-26 56 147 3 147 3 3 93 3 92 -170 0 -171 0 -2
-197z"/>
<path d="M10807 10813 c-4 -3 -7 -60 -7 -126 l0 -119 68 7 c37 4 69 9 71 11 2
2 -11 25 -29 51 l-34 46 72 69 72 68 -103 0 c-57 0 -107 -3 -110 -7z"/>
<path d="M9876 9858 c-160 -381 -299 -715 -311 -742 l-21 -48 -160 381 -159
382 -7 -48 c-11 -79 -9 -652 4 -1078 15 -491 15 -473 -2 -511 -12 -29 -12 -35
5 -60 16 -24 25 -81 47 -299 37 -366 45 -524 28 -575 -11 -33 -11 -48 0 -82
15 -51 32 -690 19 -725 -9 -23 7 -83 21 -83 14 0 30 -59 18 -66 -5 -4 -16 -21
-24 -39 -12 -29 -18 -33 -66 -38 -75 -10 -350 -8 -653 3 -143 5 -375 10 -515
11 -140 1 -365 8 -500 15 -523 29 -741 12 -932 -73 -32 -14 -58 -29 -58 -32 0
-13 44 -32 142 -62 179 -54 201 -57 333 -47 121 10 593 11 2230 8 495 -1 1166
1 1490 5 428 6 659 4 840 -5 521 -26 913 -28 1560 -6 225 8 274 17 315 61 21
22 25 39 33 158 9 139 2 975 -13 1557 -5 190 -9 519 -10 731 l0 386 -97 6
c-54 4 -108 10 -121 13 l-23 6 6 -223 c3 -123 10 -309 15 -414 24 -474 32
-938 26 -1440 -3 -291 -8 -546 -12 -567 l-6 -36 -106 -6 c-59 -3 -660 -9
-1335 -12 l-1229 -6 11 20 c14 26 14 76 1 122 -23 81 -49 445 -55 785 -7 402
-19 716 -41 1100 -15 255 -14 556 2 658 l7 37 -247 0 -247 0 25 43 c56 97 59
123 64 515 3 296 1 362 -10 362 -10 0 -10 2 0 8 9 7 12 79 10 326 l-3 318
-289 -694z m474 -1126 c0 -14 -18 -22 -92 -39 -51 -11 -94 -20 -96 -18 -4 4
161 74 176 75 6 0 12 -8 12 -18z m-5 -221 c-3 -6 -11 -8 -17 -5 -6 4 -5 9 3
15 16 10 23 4 14 -10z m-45 -11 c-8 -5 -19 -10 -25 -10 -5 0 -3 5 5 10 8 5 20
10 25 10 6 0 3 -5 -5 -10z m-767 -145 c-77 -35 -93 -39 -93 -22 0 8 23 19 63
29 85 22 90 21 30 -7z m837 -221 c0 -8 -4 -12 -10 -9 -5 3 -10 10 -10 16 0 5
5 9 10 9 6 0 10 -7 10 -16z m10 -198 c0 -7 -108 -55 -193 -87 -83 -31 -165
-53 -151 -40 20 18 224 101 279 115 33 8 61 15 63 15 1 1 2 -1 2 -3z m25 -952
c-19 -14 -216 -79 -265 -88 -25 -4 -3 11 75 52 61 32 130 72 155 89 l45 31 3
-36 c2 -25 -2 -40 -13 -48z m-805 -4 c0 -5 -4 -10 -10 -10 -5 0 -18 -10 -30
-22 -21 -23 -28 -82 -10 -93 16 -10 12 -21 -14 -33 -27 -12 -25 -17 -39 106
-3 32 7 44 16 20 3 -8 6 -6 6 4 1 11 14 21 34 27 43 12 47 13 47 1z m820 -175
c0 -6 -132 -46 -137 -42 -5 6 98 46 120 46 9 1 17 -1 17 -4z m-830 -190 c-53
-28 -60 -30 -60 -11 0 8 17 18 38 24 62 17 69 12 22 -13z"/>
<path d="M13422 10028 c4 -338 7 -399 21 -438 21 -54 62 -108 74 -97 4 5 8
133 7 285 -1 281 -12 407 -49 570 -14 60 -20 72 -37 72 -19 0 -20 -5 -16 -392z"/>
</g>
</svg>
