<?xml version="1.0" standalone="no"?>
<!DOCTYPE svg PUBLIC "-//W3C//DTD SVG 20010904//EN"
 "http://www.w3.org/TR/2001/REC-SVG-20010904/DTD/svg10.dtd">
<svg version="1.0" xmlns="http://www.w3.org/2000/svg"
 width="2000.000000pt" height="2000.000000pt" viewBox="0 0 2000.000000 2000.000000"
 preserveAspectRatio="xMidYMid meet">

<g transform="translate(0.000000,2000.000000) scale(0.100000,-0.100000)"
fill="#000000" stroke="none">
<path d="M4392 13865 c-275 -63 -550 -301 -651 -565 -17 -44 -31 -87 -31 -97
-1 -44 -13 -48 -147 -50 -70 -1 -189 -5 -263 -9 -119 -6 -149 -4 -250 16 -183
36 -320 17 -337 -48 -18 -72 48 -165 253 -361 124 -119 124 -111 5 -229 -60
-59 -81 -88 -86 -114 l-7 -36 -281 -5 c-362 -6 -440 -20 -481 -82 -31 -48 -68
-325 -86 -645 -11 -201 -14 -958 -4 -985 4 -8 20 -23 36 -31 25 -13 52 -14
159 -9 71 4 129 6 129 3 0 -2 -9 -21 -19 -42 -14 -26 -17 -45 -12 -60 28 -73
34 -188 36 -661 1 -269 7 -600 13 -735 9 -204 9 -262 -3 -345 -25 -174 -40
-925 -27 -1345 7 -201 14 -482 18 -625 3 -143 10 -274 15 -290 12 -40 142
-170 162 -162 8 3 30 36 49 74 38 78 41 119 20 313 -6 63 -16 189 -22 280 -5
91 -17 246 -26 345 -14 161 -15 215 -3 520 19 475 19 1399 -1 1620 -16 177
-16 629 -1 811 9 110 -2 213 -29 268 -10 22 -18 42 -16 44 3 2 467 -1 1033 -7
704 -7 1060 -7 1128 0 129 13 269 44 369 80 44 16 82 27 84 24 9 -9 4 -593 -7
-765 -15 -221 -14 -1090 0 -1442 8 -191 8 -272 0 -287 -15 -28 -14 -63 4 -88
15 -21 21 -68 60 -483 18 -199 21 -348 7 -383 -9 -21 -8 -40 3 -85 11 -42 16
-150 19 -416 4 -288 8 -361 19 -375 26 -30 28 -52 7 -78 -11 -14 -20 -35 -20
-46 0 -19 -5 -20 -477 -13 -624 8 -1202 22 -1433 36 -338 20 -596 -11 -753
-92 l-40 -20 29 -18 c26 -16 185 -67 289 -92 26 -6 108 -6 240 2 255 15 1095
17 1465 4 184 -6 733 -6 1545 0 974 7 1319 6 1520 -3 425 -21 838 -25 1200
-12 516 17 546 22 588 102 18 32 18 72 13 814 -3 429 -10 978 -16 1220 -6 242
-11 748 -11 1125 0 753 -4 841 -57 1050 -16 63 -43 147 -60 186 l-30 71 96 7
c198 14 343 37 369 61 32 27 32 50 -2 260 -31 189 -46 557 -33 799 9 165 -1
283 -30 349 -24 53 -66 103 -103 123 -28 14 -29 14 -59 -27 -48 -67 -56 -107
-37 -187 30 -122 47 -345 45 -582 -1 -157 4 -266 15 -360 9 -74 17 -154 17
-176 l0 -41 -97 -14 c-107 -14 -210 -15 -1130 -11 -337 1 -623 0 -635 -2 -13
-3 -250 -10 -528 -16 -480 -11 -603 -18 -642 -35 -17 -7 -18 26 -18 616 l0
624 -25 44 c-14 23 -25 44 -25 45 0 2 503 6 1118 10 1253 9 1568 16 1654 40
73 20 358 129 358 137 0 9 -135 47 -230 63 -134 24 -294 34 -435 29 l-130 -5
-13 35 c-9 24 -24 40 -48 52 -19 9 -63 41 -97 72 -34 31 -88 74 -119 96 -32
23 -58 45 -58 50 0 17 65 67 107 81 51 17 203 114 251 160 58 54 76 111 52
157 -39 72 -281 98 -502 54 -40 -7 -140 -18 -223 -24 -82 -5 -159 -13 -171
-16 -20 -6 -21 -3 -27 107 -9 196 -68 333 -195 449 -75 70 -142 109 -247 145
-72 25 -94 27 -220 27 -166 1 -247 -18 -393 -88 -303 -146 -513 -378 -827
-918 -54 -93 -101 -165 -105 -160 -4 4 -13 24 -20 43 -8 19 -38 87 -68 150
-29 63 -67 148 -83 188 -16 40 -42 98 -58 130 -41 81 -237 307 -356 410 -201
174 -708 326 -923 277z m377 -241 c7 -7 -21 -54 -29 -49 -4 3 -10 18 -12 35
-4 27 -2 30 16 24 12 -4 23 -8 25 -10z m2241 -49 c-27 -29 -32 -28 -23 3 3 14
13 22 26 22 20 0 20 -1 -3 -25z m379 -1 c5 -5 6 -5 -51 -32 -50 -23 -54 -20
-38 23 9 25 14 27 48 20 20 -4 39 -9 41 -11z m-2427 -36 c-7 -7 -12 -8 -12 -2
0 14 12 26 19 19 2 -3 -1 -11 -7 -17z m255 -175 l-27 -28 0 25 c0 14 3 36 7
48 l6 24 21 -21 20 -21 -27 -27z m1475 13 c-18 -46 -32 -52 -32 -12 0 18 39
70 47 62 2 -2 -5 -24 -15 -50z m948 -19 c0 -4 -10 -5 -22 -1 -31 9 -33 11 -17
30 12 14 14 14 26 -2 7 -10 13 -22 13 -27z m-2616 -74 c-8 -57 -9 -59 -29 -43
-13 11 -12 17 7 51 12 22 23 39 25 39 3 0 1 -21 -3 -47z m-609 -23 c3 -5 1
-10 -4 -10 -6 0 -11 5 -11 10 0 6 2 10 4 10 3 0 8 -4 11 -10z m999 -29 c3 -5
-1 -14 -8 -20 -12 -10 -13 -8 -9 8 6 23 9 25 17 12z m2270 -126 c-9 -22 -39
-28 -105 -20 -67 8 -69 15 -6 26 78 12 117 11 111 -6z m-2890 -11 c84 -22 174
-71 192 -106 8 -15 25 -30 38 -34 26 -6 107 -108 154 -194 32 -58 152 -334
152 -349 0 -17 -108 -24 -185 -12 -110 16 -405 116 -497 168 -75 43 -159 127
-193 192 -66 130 -8 261 146 331 53 24 111 25 193 4z m2361 -14 c14 -13 25
-32 25 -42 0 -25 -25 -73 -62 -120 -84 -108 -418 -338 -489 -338 -12 0 -34
-11 -49 -23 -27 -23 -247 -103 -257 -93 -15 14 102 158 233 287 164 161 302
271 409 325 59 30 78 35 118 31 32 -3 56 -12 72 -27z m-588 -52 c-3 -7 -5 -2
-5 12 0 14 2 19 5 13 2 -7 2 -19 0 -25z m-1184 -80 c-21 -54 -19 -53 -32 -30
-8 16 -6 25 10 46 31 39 41 31 22 -16z m187 18 c0 -2 -7 -9 -15 -16 -13 -11
-14 -10 -9 4 5 14 24 23 24 12z m2797 -12 c-3 -3 -12 -4 -19 -1 -8 3 -5 6 6 6
11 1 17 -2 13 -5z m-747 -58 c0 -8 -8 -24 -19 -37 l-19 -23 -38 29 c-38 29
-38 29 -14 36 45 13 90 10 90 -5z m-3915 -6 c-4 -6 -30 -22 -58 -36 l-51 -26
29 35 c21 25 39 36 58 36 17 1 26 -3 22 -9z m-521 -45 c-4 -8 -10 -12 -15 -9
-11 6 -2 24 11 24 5 0 7 -7 4 -15z m2322 -165 c-13 -32 -14 -32 -25 -12 -9 17
-8 23 11 36 29 20 31 16 14 -24z m1928 -6 c13 -5 14 -10 5 -20 -9 -11 -16 -11
-40 2 -16 8 -29 17 -29 19 0 7 46 6 64 -1z m281 -120 c3 -20 4 -38 1 -41 -7
-8 -34 51 -29 65 8 23 21 12 28 -24z m-2089 -149 c-10 -72 -11 -75 -37 -75
-26 0 -27 1 -18 38 5 20 9 40 9 44 0 6 49 68 53 68 1 0 -2 -34 -7 -75z m-1602
0 l50 -35 -73 0 c-40 0 -71 3 -69 8 23 46 32 62 37 62 3 0 28 -16 55 -35z
m1779 -12 c41 -55 37 -63 -34 -63 l-60 0 27 50 c15 28 30 50 33 50 3 -1 18
-17 34 -37z m-2639 2 c4 -11 -2 -15 -21 -15 -21 0 -24 2 -13 15 7 8 16 15 20
15 4 0 10 -7 14 -15z m3609 -46 c51 -1 2 -18 -53 -18 -42 0 -44 1 -25 15 11 8
26 12 33 9 8 -3 28 -5 45 -6z m-3636 -193 c214 -8 690 -17 1058 -20 369 -4
724 -9 790 -13 l121 -6 -20 -56 c-13 -37 -20 -86 -21 -146 -1 -50 -7 -101 -14
-112 -16 -31 -14 -64 9 -100 18 -30 20 -63 29 -400 6 -202 14 -403 17 -446 l7
-78 -28 11 c-15 6 -82 21 -150 35 -132 27 -238 31 -370 15 -185 -22 -719 -34
-1521 -34 -742 -1 -840 1 -838 14 2 8 8 186 14 395 11 396 23 624 40 785 18
167 15 158 63 163 102 9 457 6 814 -7z m2158 -46 c-3 -5 -12 -10 -20 -10 -8 0
-17 5 -20 10 -4 6 5 10 20 10 15 0 24 -4 20 -10z m240 -11 c-33 -10 -73 -21
-90 -24 -27 -5 -28 -5 -10 6 29 19 96 38 130 37 23 0 16 -4 -30 -19z m705
-1244 c0 -13 -58 -36 -90 -34 -11 0 66 43 88 48 1 1 2 -6 2 -14z m2385 -240
c160 0 344 3 411 8 l121 7 -25 -137 c-29 -166 -34 -370 -14 -713 6 -124 17
-475 22 -780 6 -305 15 -627 20 -715 30 -508 38 -1720 12 -1915 l-7 -55 -150
-8 c-82 -4 -677 -9 -1322 -10 -1098 -2 -1171 -1 -1162 15 12 22 11 95 -1 138
-24 82 -49 464 -55 825 -6 396 -15 639 -41 1073 -17 282 -17 280 16 782 5 80
10 434 12 786 l2 642 76 -5 c47 -3 110 1 168 11 50 9 129 16 175 16 85 0 249
11 522 35 123 11 250 12 545 7 212 -4 516 -7 675 -7z m-2934 -371 c-62 -28
-280 -104 -301 -104 -45 0 60 46 220 96 126 40 154 43 81 8z m-331 -99 c10
-12 10 -15 -4 -15 -9 0 -16 7 -16 15 0 8 2 15 4 15 2 0 9 -7 16 -15z m880
-154 c0 -26 -4 -29 -72 -49 -130 -38 -135 -35 -33 21 55 30 101 55 103 56 1 1
2 -12 2 -28z m-890 -166 c0 -8 -4 -15 -10 -15 -5 0 -10 7 -10 15 0 8 5 15 10
15 6 0 10 -7 10 -15z m880 -56 c0 -15 -4 -19 -16 -15 -9 3 -23 6 -32 6 -12 1
-10 5 8 15 34 19 40 19 40 -6z m-850 -179 c-43 -23 -50 -24 -50 -6 0 13 22 21
70 24 8 1 -1 -7 -20 -18z m833 -860 c-7 -7 -141 -40 -160 -40 -4 0 30 17 77
38 65 29 86 35 88 24 2 -8 0 -18 -5 -22z m17 -200 c0 -5 -9 -10 -19 -10 -11 0
-28 -3 -38 -6 -10 -3 -7 2 7 10 29 18 50 20 50 6z m-781 -144 c-2 -2 -32 -15
-66 -29 -48 -20 -63 -22 -63 -12 0 8 18 19 43 25 23 6 47 13 52 15 14 5 39 6
34 1z m788 -238 c-3 -8 -6 -5 -6 6 -1 11 2 17 5 13 3 -3 4 -12 1 -19z m-62
-233 c-82 -39 -228 -89 -245 -83 -12 4 162 81 235 104 75 24 80 12 10 -21z
m123 -862 c-3 -37 -4 -38 -83 -68 -71 -28 -200 -65 -222 -65 -4 0 43 27 104
60 62 32 130 71 150 85 21 14 41 25 46 25 4 0 7 -17 5 -37z m-848 -71 c-34
-34 -40 -81 -14 -103 14 -11 12 -14 -11 -27 -15 -7 -28 -12 -30 -10 -2 2 -7
34 -11 71 -6 60 -5 67 10 61 12 -4 15 -2 10 9 -4 11 5 17 33 24 21 5 39 9 41
8 2 -2 -11 -16 -28 -33z m810 -161 c-47 -19 -119 -37 -110 -28 11 12 106 45
130 45 19 1 14 -4 -20 -17z m-784 -176 c-27 -13 -52 -22 -57 -19 -19 12 -7 23
34 32 69 16 75 13 23 -13z"/>
<path d="M12473 13471 c-107 -37 -193 -121 -233 -228 -18 -47 -21 -74 -18
-143 6 -144 74 -252 200 -321 60 -32 68 -34 168 -34 93 0 111 3 162 27 74 34
152 113 185 185 72 157 20 358 -119 460 -97 71 -234 93 -345 54z"/>
<path d="M13920 13439 c-217 -26 -446 -141 -587 -294 -115 -124 -190 -267
-241 -460 l-26 -100 -6 -890 c-6 -792 -8 -897 -24 -955 -18 -70 -56 -146 -71
-144 -18 2 -54 77 -72 149 -16 64 -18 150 -23 961 l-5 891 -80 -45 c-240 -134
-600 -262 -735 -262 -47 0 -36 -14 22 -28 73 -17 123 -53 158 -114 58 -102 60
-130 60 -752 0 -620 -3 -659 -59 -763 l-29 -53 765 0 764 0 -20 28 c-10 15
-30 57 -43 92 l-23 65 -3 628 -3 627 236 0 235 0 0 270 0 270 -231 0 -231 0 7
33 c11 55 61 153 101 197 90 99 200 145 334 138 104 -5 178 -37 238 -103 33
-34 42 -40 46 -27 15 51 126 531 126 544 0 16 -54 45 -120 66 -116 37 -308 50
-460 31z"/>
<path d="M11060 13344 c-328 -40 -586 -160 -801 -374 -186 -186 -306 -412
-371 -701 -20 -91 -23 -130 -23 -314 0 -239 13 -333 71 -505 69 -206 164 -367
306 -515 179 -188 402 -311 671 -370 111 -25 432 -31 582 -11 263 35 458 112
601 239 l54 49 -2 551 -3 552 -315 0 -315 0 -3 -432 -2 -432 -78 -18 c-97 -22
-252 -22 -342 1 -192 49 -349 171 -462 357 -129 212 -169 545 -97 808 74 275
258 463 534 547 81 25 105 27 245 27 128 0 169 -4 235 -22 158 -43 283 -118
394 -236 34 -37 63 -65 64 -64 1 2 34 99 73 214 39 116 80 232 90 259 l19 48
-52 48 c-149 137 -356 231 -608 276 -86 15 -391 27 -465 18z"/>
<path d="M15141 13097 c-121 -157 -390 -376 -603 -492 l-88 -47 0 -269 0 -269
84 0 85 0 3 -487 c4 -471 5 -491 26 -561 86 -283 263 -417 569 -429 103 -5
137 -2 218 16 94 22 207 71 254 112 l25 20 -37 152 c-20 84 -42 187 -49 229
l-11 77 -31 -26 c-52 -44 -105 -63 -176 -63 -127 0 -187 57 -210 200 -5 36
-10 221 -10 413 l0 347 215 0 215 0 0 270 0 270 -215 0 -215 0 -2 297 -3 296
-44 -56z"/>
<path d="M17925 9527 c-198 -114 -502 -230 -684 -261 -95 -16 -125 -26 -79
-26 94 0 188 -80 229 -197 l24 -68 3 -990 c2 -723 0 -1010 -8 -1065 -14 -85
-44 -172 -65 -190 -8 -7 -15 -16 -15 -21 0 -5 169 -9 380 -9 209 0 380 2 380
5 0 3 -9 19 -21 34 -12 16 -30 60 -42 97 -20 66 -21 95 -25 602 l-3 534 31 66
c20 43 49 84 82 114 136 128 338 94 416 -71 15 -32 17 -91 20 -577 3 -597 0
-635 -57 -746 l-30 -58 385 0 385 0 -24 33 c-14 17 -31 55 -40 82 -8 28 -19
61 -23 75 -4 14 -10 327 -14 695 -7 741 -5 717 -75 861 -37 76 -113 161 -180
199 -115 67 -330 95 -450 60 -131 -38 -119 -23 -278 -340 l-142 -285 -5 744
-5 744 -70 -41z"/>
<path d="M9841 9399 c12 -17 31 -59 43 -92 21 -62 21 -70 24 -1216 2 -1132 2
-1156 -18 -1235 -11 -44 -31 -97 -45 -118 l-25 -38 417 0 416 0 -21 23 c-31
33 -59 117 -72 217 -7 56 -10 297 -8 709 l3 625 309 -742 c170 -408 312 -742
315 -742 3 0 143 330 311 732 l305 732 3 -115 c1 -63 1 -370 0 -684 -3 -568
-3 -570 -26 -635 -13 -35 -33 -77 -43 -92 l-20 -28 410 0 c229 0 411 4 411 9
0 5 -7 14 -15 21 -21 18 -51 105 -64 187 -18 114 -15 2214 3 2313 14 77 46
163 65 174 36 22 -15 26 -352 26 l-363 0 -310 -715 c-170 -393 -311 -715 -314
-715 -3 0 -145 321 -316 713 l-310 712 -368 3 -368 2 23 -31z"/>
<path d="M14986 9191 c-126 -154 -379 -356 -588 -470 l-78 -43 0 -269 0 -269
79 0 79 0 5 -467 c4 -442 5 -473 26 -553 83 -320 301 -474 651 -457 165 8 304
52 388 124 l33 28 -40 162 c-22 89 -43 189 -47 223 -4 33 -9 60 -12 60 -3 0
-20 -11 -39 -26 -52 -40 -97 -54 -170 -54 -95 0 -138 26 -178 105 l-30 60 -3
397 -3 398 213 2 213 3 3 268 2 267 -215 0 -215 0 0 290 c0 162 -4 290 -9 290
-5 0 -34 -31 -65 -69z"/>
<path d="M13055 8706 c-209 -40 -385 -132 -504 -261 l-42 -46 29 -37 c45 -56
154 -227 202 -317 24 -44 44 -81 45 -83 1 -1 33 28 71 66 83 83 162 123 287
148 167 33 328 -9 430 -112 48 -48 102 -144 113 -202 l6 -29 -74 26 c-65 22
-89 25 -213 25 -170 1 -274 -22 -410 -89 -176 -86 -301 -207 -375 -360 -45
-95 -60 -159 -60 -263 1 -157 45 -286 129 -375 89 -94 200 -137 357 -137 94 0
167 21 244 72 45 29 70 63 233 316 l182 283 6 -203 c7 -218 16 -267 65 -358
37 -68 82 -102 142 -107 41 -4 60 3 152 49 155 79 440 239 440 248 0 4 -21 10
-46 13 -71 8 -128 61 -155 146 -8 23 -14 184 -19 461 -6 391 -9 431 -28 504
-45 163 -135 302 -265 406 -94 76 -260 155 -402 191 -107 28 -139 31 -295 35
-120 2 -197 -1 -245 -10z m600 -907 c22 -6 43 -16 47 -23 4 -6 8 -84 8 -174
l0 -163 -29 -42 c-76 -111 -187 -177 -305 -184 -60 -4 -78 -1 -116 19 -80 41
-113 118 -92 218 48 228 292 403 487 349z"/>
<path d="M16432 8705 c-403 -77 -650 -309 -760 -714 -24 -88 -26 -112 -26
-296 0 -169 3 -214 21 -291 113 -482 447 -745 948 -744 166 1 269 24 410 94
124 62 209 130 289 230 l53 67 -108 109 c-59 60 -138 150 -175 199 l-67 90
-27 -37 c-73 -101 -201 -178 -314 -189 -87 -8 -201 18 -263 61 -100 69 -155
172 -175 330 -10 79 -9 106 4 175 42 213 179 363 366 402 153 31 320 -35 406
-162 l32 -48 34 52 c51 74 175 233 237 301 l53 60 -57 59 c-105 107 -262 197
-418 238 -103 28 -353 35 -463 14z"/>
</g>
</svg>
